
<svg xmlns="http://www.w3.org/2000/svg" viewBox="0 0 32 32" width="32" height="32">
  <rect width="32" height="32" fill="#007BFF" />
  <rect x="8" y="6" width="16" height="20" fill="white" rx="2" />
  <rect x="10" y="8" width="12" height="2" fill="#007BFF" />
  <rect x="10" y="12" width="12" height="2" fill="#007BFF" />
  <rect x="10" y="16" width="12" height="2" fill="#007BFF" />
  <rect x="10" y="20" width="12" height="2" fill="#007BFF" />
  <path d="M16 24c-2 0-2-1-3-1s-1 1-3 1-2-1-3-1v-2c2 0 2 1 3 1s1-1 3-1 1 1 3 1 2-1 3-1v2c-1 0-1 1-3 1z" fill="white" />
</svg>